# xmcd CD database file
#
# Track frame offsets:
#	150
#	24595
#	49280
#
# Disc length: 979 seconds
#
# Revision: 0
# Processed by: cddbd v1.5.1PL0 Copyright (c) Steve Scherf et al.
# Submitted via: CDex 1.51
#
DISCID=2003d103
DTITLE=中山　加奈子 - 史上最大の作戦
DYEAR=1995
DGENRE=Pop
TTITLE0=史上最大の作戦
TTITLE1=もう一度あいたい
TTITLE2=史上最大の作戦（オリジナル・カラオケ）
EXTD=YEAR: 1995
EXTT0=
EXTT1=
EXTT2=
PLAYORDER=
